<?xml version="1.0" encoding="utf-8"?>
<!-- Generator: Adobe Illustrator 16.0.0, SVG Export Plug-In . SVG Version: 6.00 Build 0)  -->
<!DOCTYPE svg PUBLIC "-//W3C//DTD SVG 1.1//EN" "http://www.w3.org/Graphics/SVG/1.1/DTD/svg11.dtd">
<svg version="1.1" id="Layer_1" xmlns="http://www.w3.org/2000/svg" xmlns:xlink="http://www.w3.org/1999/xlink" x="0px" y="0px"
	 width="365.811px" height="100px" viewBox="0 0 365.811 100" enable-background="new 0 0 365.811 100" xml:space="preserve">
<g>
	<path d="M25.883,32.994c0-3.822,1.66-7.018,4.982-9.588c3.321-2.569,7.833-4.479,13.536-5.734c0.376-2.632,1.441-4.731,3.196-6.298
		c1.754-1.565,3.337-2.35,4.747-2.35s2.538,0.392,3.384,1.175c0.846,0.784,1.269,1.833,1.269,3.149c0,3.071-2.162,5.202-6.486,6.392
		c-0.94,17.547-1.41,26.541-1.41,26.978c1.88-1.064,4.089-2.083,6.627-3.055c2.538-0.972,4.339-1.457,5.405-1.457
		c1.065,0,1.598,0.22,1.598,0.657c0,0.815-0.376,1.349-1.128,1.599c-4.074,1.315-8.272,3.29-12.596,5.922
		c-0.502,13.286-0.815,21.244-0.94,23.876c-0.439,7.394-2.068,13.033-4.888,16.92c-2.82,3.885-6.737,5.828-11.75,5.828
		c-3.948,0-7.082-1.614-9.4-4.841c-2.319-3.229-3.478-6.784-3.478-10.669c0-5.516,1.942-10.732,5.828-15.651
		c3.885-4.919,9.807-9.979,17.766-15.181l1.974-29.704c-7.959,1.379-11.938,4.794-11.938,10.246c0,1.567-0.329,2.79-0.987,3.666
		c-0.658,0.878-1.489,1.316-2.491,1.316C26.823,36.19,25.883,35.125,25.883,32.994z M32.745,93.624c4.261,0,6.768-4.732,7.52-14.194
		c0.376-4.763,0.705-9.494,0.987-14.194c0.282-4.699,0.484-8.052,0.611-10.058c-2.57,1.818-4.638,3.369-6.204,4.653
		c-1.567,1.285-3.259,2.899-5.076,4.841c-3.447,3.885-5.17,8.585-5.17,14.1c0,5.326,0.908,9.4,2.726,12.221
		C29.329,92.745,30.865,93.624,32.745,93.624z M53.143,12.22c-1.379,0-2.194,1.41-2.444,4.23c2.256-0.689,3.384-1.598,3.384-2.726
		C54.083,12.722,53.769,12.22,53.143,12.22z"/>
	<path d="M63.764,67.397c-2.444,0-4.293-0.501-5.546-1.504c-0.439-0.438-0.658-2.005-0.658-4.7c0-2.693,0.203-7.19,0.611-13.488
		c0.407-6.298,0.767-9.697,1.081-10.199c0.313-0.501,1.284-1.441,2.914-2.82c1.629-1.377,2.898-2.068,3.807-2.068
		c0.908,0,1.363,1.191,1.363,3.572c0,0.627-0.173,1.849-0.517,3.666c-0.345,1.818-0.737,3.134-1.175,3.948
		c-0.815,2.068-1.222,7.489-1.222,16.262c0,1.692,0.188,2.538,0.564,2.538c1.065-0.062,2.538-1.394,4.418-3.995
		c1.88-2.6,3.744-5.937,5.593-10.011c1.848-4.073,2.976-6.11,3.384-6.11c0.407,0,0.611,0.252,0.611,0.752
		c0,1.756-0.909,4.545-2.726,8.366C71.315,62.134,67.148,67.397,63.764,67.397z M61.038,20.962c0-1.128,0.595-2.099,1.786-2.914
		c1.189-0.814,2.256-1.222,3.196-1.222c1.692,0,2.538,0.972,2.538,2.914c0,1.943-0.502,3.619-1.504,5.029
		c-1.003,1.41-2.413,2.115-4.23,2.115C61.633,26.884,61.038,24.91,61.038,20.962z"/>
	<path d="M81.341,61.852l0.094,2.914c0,1.755-0.502,2.632-1.504,2.632c-1.504,0-2.946-0.204-4.324-0.61
		c-1.379-0.407-2.068-0.972-2.068-1.692c0-0.72,0.173-3.196,0.517-7.426c0.344-4.23,0.517-7.41,0.517-9.541v-5.546
		c0-3.008,0.313-4.825,0.94-5.452c0.626-0.626,1.739-1.535,3.337-2.726c1.598-1.19,2.757-1.786,3.478-1.786
		c0.72,0,1.175,0.126,1.363,0.376c0.188,0.251,0.282,0.721,0.282,1.41c0,3.322-0.627,6.455-1.88,9.4
		c-0.314,3.572-0.47,6.048-0.47,7.426c0.25-0.376,1.566-2.506,3.948-6.392c2.381-3.885,4.402-6.736,6.063-8.554
		c1.66-1.817,3.149-2.726,4.465-2.726s2.491,0.439,3.525,1.316c1.034,0.878,1.551,1.974,1.551,3.29
		c0,2.758-0.298,6.815-0.893,12.173c-0.596,5.357-0.893,8.742-0.893,10.151c0,1.41,0.188,2.115,0.564,2.115
		c1.065-0.062,2.538-1.394,4.418-3.995c1.88-2.6,3.744-5.937,5.593-10.011c1.848-4.073,2.976-6.11,3.384-6.11
		c0.407,0,0.611,0.252,0.611,0.752c0,1.756-0.909,4.545-2.726,8.366c-4.951,10.528-9.118,15.792-12.502,15.792
		c-2.444,0-4.293-0.501-5.546-1.504c-0.439-0.438-0.658-1.582-0.658-3.431c0-1.848,0.172-4.855,0.517-9.024
		c0.344-4.167,0.517-7.285,0.517-9.353c0-2.068-0.361-3.102-1.081-3.102c-0.721,0-2.618,2.147-5.687,6.439
		c-3.071,4.293-4.7,7.035-4.888,8.225C81.529,57.842,81.341,59.91,81.341,61.852z"/>
	<path d="M122.793,38.164l0.188-1.41c0-1.128-0.644-1.692-1.927-1.692c-1.285,0-2.523,0.832-3.713,2.491
		c-1.191,1.661-1.786,3.024-1.786,4.089c0,1.066,0.062,1.912,0.188,2.538c0.125,0.627,0.266,1.145,0.423,1.551
		c0.156,0.408,0.423,0.894,0.799,1.457c0.376,0.564,0.658,0.973,0.846,1.223l1.034,1.315c0.438,0.627,0.752,1.034,0.94,1.222
		c3.258-2.693,7.144-5.701,11.656-9.023c0.25-0.188,0.532-0.282,0.846-0.282c0.626,0,0.94,0.346,0.94,1.034
		c0,0.69-0.282,1.222-0.846,1.598c-4.011,2.57-7.802,5.358-11.374,8.366c1.378,2.007,2.068,4.199,2.068,6.58
		c0,2.382-0.909,4.418-2.726,6.11c-1.818,1.691-4.136,2.538-6.956,2.538c-2.82,0-4.23-1.348-4.23-4.042
		c0-1.942,2.068-4.919,6.204-8.931c-0.314-0.376-0.878-0.986-1.692-1.833c-0.815-0.846-1.426-1.519-1.833-2.021
		c-0.408-0.501-0.893-1.159-1.457-1.975c-1.003-1.565-1.504-3.258-1.504-5.075c0-3.697,1.189-6.689,3.572-8.978
		c2.381-2.287,4.919-3.431,7.614-3.431c1.692,0,3.008,0.456,3.948,1.363c0.94,0.909,1.41,1.833,1.41,2.773
		c0,2.131-0.502,3.196-1.504,3.196C123.169,38.916,122.793,38.666,122.793,38.164z M116.777,56.682
		c-2.507,2.507-3.76,4.528-3.76,6.063c0,1.536,0.783,2.303,2.35,2.303c0.94,0,1.723-0.376,2.35-1.128
		C119.095,62.04,118.782,59.628,116.777,56.682z"/>
	<path d="M139.9,67.397c-3.51,0-6.298-1.33-8.366-3.995c-2.068-2.662-3.102-5.687-3.102-9.07c0-6.83,1.441-12,4.324-15.51
		c2.881-3.509,6.611-5.264,11.186-5.264c2.13,0,3.885,0.58,5.264,1.739c1.378,1.16,2.068,2.742,2.068,4.747
		c0,3.76-1.583,6.909-4.747,9.447c-3.166,2.537-7.036,3.87-11.609,3.994c0.25,2.444,1.081,4.56,2.491,6.346s3.055,2.679,4.935,2.679
		s3.572-0.438,5.076-1.316c1.504-0.877,2.882-2.129,4.136-3.76c2.632-3.445,4.888-7.362,6.768-11.75
		c0.501-1.128,0.893-1.941,1.175-2.444c0.282-0.5,0.595-0.752,0.94-0.752c0.344,0,0.517,0.252,0.517,0.752
		c0,3.135-1.912,7.835-5.734,14.101C151.086,64.046,145.979,67.397,139.9,67.397z M134.918,51.229
		c3.697-0.625,6.407-1.816,8.131-3.571c1.723-1.754,2.585-4.042,2.585-6.862s-0.909-4.23-2.726-4.23
		c-2.194,0-4.042,1.52-5.546,4.559C135.858,44.165,135.043,47.533,134.918,51.229z"/>
	<path d="M155.975,58.75l0.564-10.528c0-6.705,0.313-10.371,0.94-10.998c0.626-0.625,1.739-1.551,3.337-2.773
		c1.598-1.222,2.757-1.833,3.478-1.833c0.72,0,1.175,0.126,1.363,0.376c0.188,0.251,0.282,0.752,0.282,1.504
		c0,2.695-0.596,5.421-1.786,8.178c-0.94,5.767-1.41,10.497-1.41,14.194c0,3.698,0.595,5.546,1.786,5.546
		c1.44,0,3.133-1.253,5.076-3.761c1.942-2.505,3.885-6.234,5.828-11.186c0.564-6.266,1.018-9.65,1.363-10.152
		c0.344-0.501,1.206-1.41,2.585-2.726c1.378-1.316,2.522-1.974,3.431-1.974c0.908,0,1.363,1.191,1.363,3.572
		c0,0.627-0.173,1.849-0.517,3.666c-0.345,1.818-0.737,3.134-1.175,3.948c-0.69,1.755-1.034,7.177-1.034,16.262
		c0,1.692,0.188,2.538,0.564,2.538c1.065-0.062,2.538-1.394,4.418-3.995c1.88-2.6,3.744-5.937,5.593-10.011
		c1.848-4.073,2.976-6.11,3.384-6.11c0.407,0,0.611,0.252,0.611,0.752c0,1.756-0.909,4.545-2.726,8.366
		c-4.951,10.528-9.118,15.792-12.502,15.792c-2.444,0-4.293-0.501-5.546-1.504c-0.439-0.438-0.658-1.786-0.658-4.042
		s0.094-4.762,0.282-7.52c-2.006,4.262-4.011,7.505-6.016,9.729c-2.006,2.226-4.246,3.337-6.721,3.337
		c-2.477,0-4.122-0.658-4.935-1.974C156.381,64.107,155.975,61.884,155.975,58.75z"/>
	<path d="M197.146,67.397c-1.379,0-2.648-0.173-3.807-0.517c-1.161-0.344-1.866-0.673-2.115-0.987
		c-0.627-0.752-0.94-4.652-0.94-11.703c0-7.05,0.783-16.622,2.35-28.717c1.316-9.964,4.386-14.946,9.212-14.946
		c1.128,0,1.942,0.611,2.444,1.833c0.501,1.222,0.752,2.397,0.752,3.525c0,8.147-2.476,17.265-7.426,27.354
		c-0.188,5.203-0.282,9.729-0.282,13.583c0,3.854,0.344,5.781,1.034,5.781c1.065-0.062,2.538-1.394,4.418-3.995
		c1.88-2.6,3.744-5.937,5.593-10.011c1.848-4.073,2.976-6.11,3.384-6.11c0.407,0,0.611,0.252,0.611,0.752
		c0,1.756-0.909,4.545-2.726,8.366C204.697,62.134,200.53,67.397,197.146,67.397z M202.692,16.732c0-2.005-0.251-3.008-0.752-3.008
		c-1.88,0-3.259,7.802-4.136,23.406C201.062,28.545,202.692,21.746,202.692,16.732z"/>
	<path d="M263.978,51.418c0.438-0.626,1.065-1.723,1.88-3.29c2.005-3.572,3.211-5.358,3.619-5.358c0.407,0,0.611,0.251,0.611,0.752
		c0,3.071-1.598,6.956-4.794,11.656c-5.766,8.46-13.442,12.69-23.03,12.69c-2.695,0-5.17-0.628-7.426-1.881
		c-2.256-1.252-4.042-2.851-5.358-4.794c-2.695-3.947-4.042-8.084-4.042-12.407c0-10.904,2.834-19.693,8.507-26.367
		c5.671-6.674,12.392-10.011,20.163-10.011c2.945,0,5.358,0.862,7.238,2.585c1.88,1.725,2.82,3.901,2.82,6.533
		c0,2.632-0.658,5.076-1.974,7.332c-1.316,2.256-2.899,3.384-4.747,3.384c-1.849,0-2.773-0.501-2.773-1.504
		c0-1.128,0.611-2.412,1.833-3.854c1.222-1.441,1.833-2.882,1.833-4.324c0-4.449-2.366-6.674-7.097-6.674
		c-4.732,0-9.01,3.165-12.831,9.494c-3.823,6.33-5.734,12.847-5.734,19.552c0,4.639,1.316,8.758,3.948,12.361
		c2.632,3.604,6.329,5.404,11.092,5.404C253.355,62.697,258.775,58.938,263.978,51.418z"/>
	<path d="M271.966,61.852l0.094,2.914c0,1.755-0.502,2.632-1.504,2.632c-1.504,0-2.946-0.204-4.324-0.61
		c-1.379-0.407-2.068-0.972-2.068-1.692c0-0.72,0.172-3.196,0.517-7.426c0.344-4.23,0.517-7.41,0.517-9.541v-5.452
		c0-16.042,2.851-26.257,8.554-30.644c1.316-1.001,2.663-1.504,4.042-1.504c0.626,0,1.253,0.69,1.88,2.068
		c0.626,1.379,0.94,3.165,0.94,5.358c0,5.391-0.909,10.434-2.726,15.134c-1.818,4.7-3.666,8.304-5.546,10.81
		c-0.063,1.567-0.094,4.012-0.094,7.332c0.25-0.376,1.566-2.506,3.948-6.392c2.381-3.885,4.402-6.736,6.063-8.554
		c1.66-1.817,3.149-2.726,4.464-2.726c1.316,0,2.491,0.439,3.525,1.316c1.034,0.878,1.551,1.974,1.551,3.29
		c0,2.758-0.298,6.815-0.893,12.173c-0.597,5.357-0.894,8.742-0.894,10.151c0,1.41,0.188,2.115,0.564,2.115
		c1.064-0.062,2.538-1.394,4.418-3.995c1.88-2.6,3.744-5.937,5.593-10.011c1.848-4.073,2.976-6.11,3.384-6.11
		c0.407,0,0.611,0.252,0.611,0.752c0,1.756-0.909,4.545-2.726,8.366c-4.951,10.528-9.118,15.792-12.502,15.792
		c-2.444,0-4.293-0.501-5.546-1.504c-0.439-0.438-0.658-1.582-0.658-3.431c0-1.848,0.172-4.855,0.517-9.024
		c0.344-4.167,0.517-7.285,0.517-9.353c0-2.068-0.361-3.102-1.081-3.102c-0.721,0-2.617,2.147-5.687,6.439
		c-3.071,4.293-4.7,7.035-4.888,8.225C272.154,57.842,271.966,59.91,271.966,61.852z M278.076,20.022
		c0-2.632-0.345-3.948-1.034-3.948c-1.128,0-2.225,3.478-3.29,10.434c-0.564,3.698-0.972,7.99-1.222,12.878
		C276.227,31.678,278.076,25.224,278.076,20.022z"/>
	<path d="M328.459,46.529c2.506-0.813,4.245-1.519,5.217-2.114c0.971-0.595,1.707-1.049,2.209-1.363l1.128-0.658
		c0.313-0.188,0.564-0.282,0.752-0.282c0.501,0,0.753,0.282,0.753,0.847c0,0.563-0.973,1.551-2.914,2.961
		c-1.943,1.41-4.356,2.679-7.238,3.807c-0.439,5.264-2.101,9.526-4.982,12.784c-2.883,3.259-6.988,4.888-12.313,4.888
		c-3.887,0-6.862-1.551-8.931-4.652c-2.067-3.103-3.102-6.736-3.102-10.904c0-4.167,1.236-8.099,3.713-11.797
		c2.475-3.697,5.655-5.546,9.541-5.546c1.754-1.252,3.838-1.88,6.251-1.88c2.412,0,4.653,1.285,6.721,3.854
		C327.331,39.042,328.396,42.394,328.459,46.529z M322.349,51.324l-3.384,0.188c-2.883,0-5.327-0.86-7.332-2.585
		c-2.006-1.723-3.008-3.619-3.008-5.688c0-2.067,0.344-3.854,1.034-5.357c-2.695,2.131-4.042,6.33-4.042,12.596
		c0,3.008,0.626,5.875,1.88,8.602c1.253,2.726,3.227,4.089,5.922,4.089c2.694,0,4.794-1.143,6.298-3.432
		C321.221,57.45,322.098,54.646,322.349,51.324z M316.521,35.72c-1.004,0-1.786,0.455-2.351,1.363
		c-0.563,0.909-0.846,1.896-0.846,2.961c0,2.319,0.799,4.199,2.396,5.64c1.599,1.442,3.462,2.162,5.594,2.162h1.128
		c-0.127-3.069-0.644-5.858-1.551-8.366C319.983,36.974,318.526,35.72,316.521,35.72z"/>
	<path d="M339.457,67.397c-2.444,0-4.293-0.501-5.546-1.504c-0.439-0.438-0.658-2.005-0.658-4.7c0-2.693,0.203-7.19,0.611-13.488
		c0.406-6.298,0.767-9.697,1.081-10.199c0.313-0.501,1.283-1.441,2.914-2.82c1.628-1.377,2.897-2.068,3.807-2.068
		c0.907,0,1.363,1.191,1.363,3.572c0,0.627-0.174,1.849-0.518,3.666c-0.345,1.818-0.737,3.134-1.175,3.948
		c-0.815,2.068-1.222,7.489-1.222,16.262c0,1.692,0.188,2.538,0.563,2.538c1.065-0.062,2.538-1.394,4.418-3.995
		c1.88-2.6,3.744-5.937,5.593-10.011c1.849-4.073,2.977-6.11,3.385-6.11c0.406,0,0.61,0.252,0.61,0.752
		c0,1.756-0.909,4.545-2.726,8.366C347.008,62.134,342.841,67.397,339.457,67.397z M336.73,20.962c0-1.128,0.596-2.099,1.786-2.914
		c1.19-0.814,2.256-1.222,3.196-1.222c1.692,0,2.538,0.972,2.538,2.914c0,1.943-0.502,3.619-1.504,5.029
		c-1.003,1.41-2.413,2.115-4.23,2.115C337.326,26.884,336.73,24.91,336.73,20.962z"/>
</g>
</svg>
